<?xml version="1.0" encoding="UTF-8" standalone="no"?>
<!-- Generator: Adobe Illustrator 16.0.0, SVG Export Plug-In . SVG Version: 6.00 Build 0)  -->

<svg
   xmlns:dc="http://purl.org/dc/elements/1.1/"
   xmlns:cc="http://creativecommons.org/ns#"
   xmlns:rdf="http://www.w3.org/1999/02/22-rdf-syntax-ns#"
   xmlns:svg="http://www.w3.org/2000/svg"
   xmlns="http://www.w3.org/2000/svg"
   xmlns:sodipodi="http://sodipodi.sourceforge.net/DTD/sodipodi-0.dtd"
   xmlns:inkscape="http://www.inkscape.org/namespaces/inkscape"
   version="1.1"
   id="Layer_1"
   x="0px"
   y="0px"
   width="201.96063"
   height="201.87047"
   viewBox="0 0 201.96063 201.87048"
   enable-background="new 0 0 283.465 141.732"
   xml:space="preserve"
   inkscape:version="0.48.2 r9819"
   sodipodi:docname="Dnk party a.svg"><metadata
   id="metadata4059"><rdf:RDF><cc:Work
       rdf:about=""><dc:format>image/svg+xml</dc:format><dc:type
         rdf:resource="http://purl.org/dc/dcmitype/StillImage" /></cc:Work></rdf:RDF></metadata><defs
   id="defs4057" /><sodipodi:namedview
   pagecolor="#ffffff"
   bordercolor="#666666"
   borderopacity="1"
   objecttolerance="10"
   gridtolerance="10"
   guidetolerance="10"
   inkscape:pageopacity="0"
   inkscape:pageshadow="2"
   inkscape:window-width="1264"
   inkscape:window-height="911"
   id="namedview4055"
   showgrid="false"
   fit-margin-top="0"
   fit-margin-left="0"
   fit-margin-right="0"
   fit-margin-bottom="0"
   inkscape:zoom="1"
   inkscape:cx="63.077495"
   inkscape:cy="143.75847"
   inkscape:window-x="1920"
   inkscape:window-y="0"
   inkscape:window-maximized="0"
   inkscape:current-layer="Layer_1" />
<g
   id="g4045"
   transform="matrix(1.7338951,0,0,1.7338951,-136.37952,-22.114098)">
	<g
   id="g4047">
		<path
   d="m 192.883,70.955 c 0,30.915 -25.063,55.975 -55.964,55.975 -30.934,0 -56.014,-25.06 -56.014,-55.975 0,-30.917 25.08,-55.951 56.014,-55.951 30.901,0 55.964,25.035 55.964,55.951 z"
   id="path4049"
   inkscape:connector-curvature="0"
   style="fill:#c10b20" />
		<path
   d="m 136.919,129.18 c -32.127,0 -58.264,-26.119 -58.264,-58.225 0,-32.092 26.137,-58.201 58.264,-58.201 32.1,0 58.214,26.109 58.214,58.201 0,32.106 -26.114,58.225 -58.214,58.225 l 0,0 z m 0,-111.926 c -29.646,0 -53.764,24.09 -53.764,53.701 0,29.624 24.119,53.725 53.764,53.725 29.618,0 53.714,-24.101 53.714,-53.725 0,-29.611 -24.096,-53.701 -53.714,-53.701 l 0,0 z"
   id="path4051"
   inkscape:connector-curvature="0"
   style="fill:#ffffff" />
	</g>
</g>
<path
   d="m 139.79874,139.24044 h -14.0931 c -3.01697,0 -4.15094,-1.38191 -4.90345,-3.51807 l -5.03522,-14.60113 h -4.53241 -22.141837 -4.40582 l -5.03178,15.10049 c -0.50283,1.6368 -1.51541,3.01871 -3.77815,3.01871 h -14.34105 c -1.38364,0 -2.17429,-0.77678 -2.17429,-1.91595 0,-0.49936 0.1179,-0.83227 0.40746,-1.60212 l 29.9513,-80.666001 c 0.75771,-1.886478 1.88648,-3.145286 4.27752,-3.145286 h 12.959127 c 2.51588,0 3.89953,1.135701 4.53067,2.774232 l 30.57897,80.152765 c 0.25315,0.76119 0.37626,1.38539 0.37626,1.88995 0,1.50849 -0.87909,2.51241 -2.6442,2.51241 M 102.42637,81.229514 c -0.87214,-2.767296 -1.63506,-5.156604 -2.26099,-7.29623 h -0.253147 c -0.62768,2.267935 -1.37845,4.783817 -2.2662,7.421071 l -7.92391,24.666395 h 20.635087 l -7.93084,-24.791236 z"
   id="path4053"
   inkscape:connector-curvature="0"
   style="fill:#ffffff" />
</svg>